G04 MADE WITH FRITZING*
G04 WWW.FRITZING.ORG*
G04 DOUBLE SIDED*
G04 HOLES PLATED*
G04 CONTOUR ON CENTER OF CONTOUR VECTOR*
%FSLAX26Y26*%
%MOIN*%
%ADD10C,0.070001*%
%ADD11C,0.088000*%
%ADD12C,0.049370*%
%ADD13C,0.093307*%
%ADD14C,0.096614*%
%ADD15R,0.087806X0.087630*%
%ADD16R,0.093307X0.093307*%
G04 MASK1*
%FSLAX26Y26*%
%MOIN*%
D10*
X1623210Y1135490D03*
X1873220Y2130503D03*
X1748220Y2130503D03*
X1623210Y2130503D03*
X1498210Y2130503D03*
X1373210Y2130503D03*
X1748220Y1135490D03*
X1873220Y1135490D03*
X1498210Y1135490D03*
X1248210Y2130503D03*
X1123210Y2130503D03*
X998207Y2130503D03*
X873210Y2130503D03*
X748210Y2130503D03*
X623210Y2130503D03*
X498150Y2130503D03*
X373150Y2130503D03*
X248150Y2130503D03*
X123150Y2130503D03*
X998207Y1135490D03*
X873210Y1135490D03*
X748210Y1135490D03*
X623210Y1135490D03*
X498150Y1135490D03*
X373150Y1135490D03*
X248150Y1135490D03*
X123150Y1135490D03*
X1373210Y1135490D03*
X1248210Y1135490D03*
X1123210Y1135490D03*
D11*
X2123140Y1530515D03*
X2483150Y1530515D03*
X2483140Y2130501D03*
X2123140Y2130501D03*
X223140Y630500D03*
X223140Y530500D03*
X223140Y430500D03*
X223140Y330500D03*
X1846530Y330500D03*
X1846530Y430500D03*
X1846530Y530500D03*
X1846530Y630500D03*
D12*
X123407Y2030163D03*
D13*
X2323140Y730500D03*
X2323140Y530500D03*
X2323140Y330500D03*
X2323140Y130500D03*
X2323140Y1230500D03*
X2323140Y1030500D03*
D14*
X1825270Y109130D03*
X128685Y887350D03*
X495440Y1838520D03*
X1801430Y1814666D03*
D15*
X2482718Y2130440D03*
X2123658Y2130440D03*
X2122858Y1530126D03*
X2482988Y1530393D03*
D16*
X2323144Y730496D03*
X2323144Y1230506D03*
G04 End of Mask1*
M02*