G04 MADE WITH FRITZING*
G04 WWW.FRITZING.ORG*
G04 DOUBLE SIDED*
G04 HOLES PLATED*
G04 CONTOUR ON CENTER OF CONTOUR VECTOR*
%FSLAX26Y26*%
%MOIN*%
%ADD10C,0.060001*%
%ADD11C,0.078000*%
%ADD12C,0.039370*%
%ADD13C,0.083307*%
%ADD14R,0.077806X0.077630*%
%ADD15R,0.083307X0.083307*%
%ADD16C,0.024000*%
G04 COPPER0*
%FSLAX26Y26*%
%MOIN*%
D10*
X1623210Y1135490D03*
X1873220Y2130503D03*
X1748220Y2130503D03*
X1623210Y2130503D03*
X1498210Y2130503D03*
X1373210Y2130503D03*
X1748220Y1135490D03*
X1873220Y1135490D03*
X1498210Y1135490D03*
X1248210Y2130503D03*
X1123210Y2130503D03*
X998207Y2130503D03*
X873210Y2130503D03*
X748210Y2130503D03*
X623210Y2130503D03*
X498150Y2130503D03*
X373150Y2130503D03*
X248150Y2130503D03*
X123150Y2130503D03*
X998207Y1135490D03*
X873210Y1135490D03*
X748210Y1135490D03*
X623210Y1135490D03*
X498150Y1135490D03*
X373150Y1135490D03*
X248150Y1135490D03*
X123150Y1135490D03*
X1373210Y1135490D03*
X1248210Y1135490D03*
X1123210Y1135490D03*
D11*
X2123140Y1530515D03*
X2483150Y1530515D03*
X2483140Y2130501D03*
X2123140Y2130501D03*
X223140Y630500D03*
X223140Y530500D03*
X223140Y430500D03*
X223140Y330500D03*
X1846530Y330500D03*
X1846530Y430500D03*
X1846530Y530500D03*
X1846530Y630500D03*
D12*
X123407Y2030163D03*
D13*
X2323140Y730500D03*
X2323140Y530500D03*
X2323140Y330500D03*
X2323140Y130500D03*
X2323140Y1230500D03*
X2323140Y1030500D03*
D14*
X2482718Y2130440D03*
X2123658Y2130440D03*
X2122858Y1530126D03*
X2482988Y1530393D03*
D15*
X2323144Y730496D03*
X2323144Y1230506D03*
D16*
X123744Y1929611D02*
X123443Y2022289D01*
D02*
X522778Y1929742D02*
X123739Y1929611D01*
D02*
X1522500Y1929742D02*
X522778Y1929742D01*
D02*
X2424210Y1929742D02*
X1522500Y1929742D01*
D02*
X2477790Y2112271D02*
X2424210Y1929742D01*
D02*
X2133680Y1514706D02*
X2311130Y1248520D01*
D02*
X2478460Y1512103D02*
X2364000Y1062730D01*
X2364000Y1062730D02*
X2340150Y1043910D01*
D02*
X238095Y342220D02*
X300000Y390730D01*
X300000Y390730D02*
X300000Y966730D01*
X300000Y966730D02*
X487483Y1126410D01*
D02*
X1828500Y636470D02*
X540000Y1062730D01*
X540000Y1062730D02*
X540000Y1182730D01*
X540000Y1182730D02*
X204000Y1182730D01*
X204000Y1182730D02*
X135226Y1142550D01*
D02*
X2306560Y716580D02*
X1861090Y342710D01*
D02*
X246182Y1121630D02*
X204000Y822730D01*
X204000Y822730D02*
X156000Y822730D01*
X156000Y822730D02*
X156000Y270730D01*
X156000Y270730D02*
X1827550Y329830D01*
G04 End of Copper0*
M02*