; NON-PLATED HOLES START AT T1
; THROUGH (PLATED) HOLES START AT T100
M48
INCH
T1C0.086614
T100C0.043307
T101C0.038000
T102C0.028000
T103C0.015748
%
T1
X004954Y018385
X001286Y008873
X018252Y001091
X018014Y018146
T100
X023231Y003305
X023231Y010305
X023231Y012305
X023231Y001305
X023231Y007305
X023231Y005305
T101
X002231Y005305
X002231Y006305
X021231Y021305
X024831Y021305
X018465Y004305
X024831Y015305
X021231Y015305
X018465Y003305
X018465Y005305
X018465Y006305
X002231Y004305
X002231Y003305
T102
X006232Y011354
X017482Y011354
X006232Y021305
X017482Y021305
X018732Y011354
X018732Y021305
X012482Y021305
X012482Y011354
X002481Y011354
X002481Y021305
X003731Y021305
X003731Y011354
X001231Y011354
X004981Y011354
X013732Y011354
X007482Y011354
X001231Y021305
X004981Y021305
X011232Y011354
X007482Y021305
X011232Y021305
X013732Y021305
X016232Y021305
X016232Y011354
X008732Y021305
X008732Y011354
X014982Y011354
X014982Y021305
X009982Y011354
X009982Y021305
T103
X001234Y020301
T00
M30
